# xmcd
#
# Track frame offsets: 
#        150
#        15394
#        31060
#        45280
#        59487
#        77252
#        92854
#        109531
#        124992
#        137637
#        156093
#        172297
#        191176
#        204845
#        219756
#        241208
#
# Disc length: 3400 seconds
#
# Revision: 0
# Processed by: cddbd v1.5.2PL0 Copyright (c) Steve Scherf et al.
# Submitted via: ExactAudioCopyFreeDBPlugin 1.0
#
DISCID=c90d4610
DTITLE=陳一郎 - CD3
DYEAR=1900
DGENRE=Country
TTITLE0=思念故鄉的情人
TTITLE1=彼個小姑娘
TTITLE2=內山姑娘要出嫁
TTITLE3=無情之夢
TTITLE4=男性的氣魄
TTITLE5=可憐戀花再會吧
TTITLE6=素蘭小姐要出嫁
TTITLE7=紅燈青燈
TTITLE8=再會呀港都
TTITLE9=夜霧的港口
TTITLE10=路頂的小姐
TTITLE11=離別之後
TTITLE12=後街人生
TTITLE13=第二個故鄉
TTITLE14=港邊乾杯
TTITLE15=心心相愛
EXTD=
EXTT0=
EXTT1=
EXTT2=
EXTT3=
EXTT4=
EXTT5=
EXTT6=
EXTT7=
EXTT8=
EXTT9=
EXTT10=
EXTT11=
EXTT12=
EXTT13=
EXTT14=
EXTT15=
PLAYORDER=
